<?xml version="1.0" encoding="utf-8"?>
<!-- Generator: Adobe Illustrator 23.0.1, SVG Export Plug-In . SVG Version: 6.00 Build 0)  -->
<svg version="1.1" id="Layer_1" xmlns="http://www.w3.org/2000/svg" xmlns:xlink="http://www.w3.org/1999/xlink" x="0px" y="0px"
	 viewBox="0 0 130 130" style="enable-background:new 0 0 130 130;" xml:space="preserve">
<g>
	<path d="M130,8.89c0,9.82,0,19.64,0,29.45c-2.77,6.85-5.57,8.73-12.99,8.73c-24.97,0-49.93-0.02-74.9,0.01
		c-4.64,0.01-3.81-0.86-3.92,4.07c-0.02,0.93,0.24,1.14,1.19,0.95c5.75-1.16,10.84,1.5,13.22,6.9c0.41,0.92,0.87,1.02,1.75,0.82
		c5.52-1.28,10.52,1.02,13.17,6.09c0.43,0.81,0.83,0.94,1.68,0.69c7.8-2.3,15.39,2.96,15.56,11.1c0.18,8.37,0.44,16.76-0.15,25.12
		c-0.67,9.45-5.16,16.84-12.84,22.31c-4.01,2.85-8.55,4.39-13.38,5.12c-10.75,0-21.5,0-32.25,0c-0.2-0.05-0.4-0.12-0.61-0.15
		c-8.15-1.27-14.72-5.19-19.72-11.73c-3.23-4.22-5-9.05-5.82-14.27c0-8.13,0-16.25,0-24.38c0.05-0.12,0.1-0.23,0.14-0.35
		c1.57-6.21,7.8-10.06,13.94-8.57c0.96,0.23,1.07-0.27,1.07-1.02c-0.01-3.98,0-7.95,0-11.93c0-3.17-0.02-6.34,0.01-9.52
		c0.01-0.93-0.35-1.31-1.27-1.27c-1.01,0.04-2.03,0.01-3.05,0c-3.33-0.03-6.04-1.37-8.26-3.82C1.29,41.83,0.63,40.1,0,38.34
		C0,28.52,0,18.7,0,8.89c0.49-1.21,0.85-2.47,1.57-3.59c1.68-2.64,4.14-4.15,7.06-5.04c37.58,0,75.16,0,112.73,0
		c1.59,0.58,3.17,1.15,4.53,2.23C128.01,4.15,129.21,6.38,130,8.89z M22.96,68.2c0,8.89-0.01,17.77,0.01,26.66
		c0,1.14-0.16,2.19-0.94,3.07c-1.07,1.21-2.76,1.67-4.26,1.13c-1.59-0.57-2.6-1.93-2.61-3.68c-0.03-4.27,0-8.55-0.02-12.82
		c-0.01-2.45-1.44-4.03-3.6-4.07c-2.2-0.04-3.8,1.46-3.78,3.87c0.04,6.85-0.32,13.71,0.2,20.55c0.74,9.84,9.57,18.61,19.42,19.42
		c4.74,0.39,9.47,0.19,14.21,0.18c5.12,0,10.24,0.27,15.35-0.17c11.16-0.96,19.87-10.4,19.93-21.6c0.03-7.41,0.01-14.81,0-22.22
		c0-0.54-0.02-1.11-0.16-1.63c-0.54-1.95-2.32-3.12-4.35-2.91c-1.9,0.19-3.36,1.74-3.5,3.74c-0.13,1.9,0.1,3.81-0.17,5.7
		c-0.21,1.45-0.97,2.52-2.32,3.11c-2.64,1.16-5.45-0.69-5.49-3.67c-0.05-3.89,0.02-7.79-0.04-11.68c-0.05-2.99-2.96-4.73-5.43-3.33
		c-1.36,0.77-1.84,2.01-1.84,3.51c-0.01,3.81,0.04,7.62-0.09,11.42c-0.09,2.57-1.85,4.2-4.07,4.1c-2.25-0.1-3.77-1.86-3.78-4.4
		c-0.01-3.77,0-7.53,0-11.3c0-2.54,0.03-5.08-0.01-7.62c-0.04-2.1-1.47-3.67-3.36-3.81c-2.02-0.15-3.6,1.17-3.94,3.31
		c-0.09,0.58-0.09,1.18-0.09,1.77c-0.01,6.05,0.01,12.1-0.03,18.15c-0.01,2.09-1.46,3.63-3.48,3.88c-1.85,0.23-3.72-1.06-4.19-2.96
		c-0.15-0.61-0.14-1.26-0.14-1.89c-0.01-13.5-0.01-27-0.01-40.5c0-0.51,0.03-1.02-0.04-1.52c-0.24-1.97-1.67-3.32-3.52-3.37
		c-1.89-0.05-3.34,1.16-3.69,3.14c-0.12,0.7-0.16,1.43-0.16,2.14C22.96,50.68,22.96,59.44,22.96,68.2z M44.86,7.97
		c-10.79,0-21.57,0-32.36,0c-3.77,0-4.79,1.03-4.79,4.85c0,3.09,0,6.18,0,9.26c0,4.4-0.02,8.8,0.01,13.2
		c0.01,2.62,1.27,3.89,3.88,3.97c0.68,0.02,1.36-0.06,2.03,0.02c1.13,0.13,1.54-0.41,1.78-1.45c1.26-5.42,5.98-9.22,11.31-9.19
		c5.42,0.03,9.97,3.73,11.24,9.23c0.25,1.07,0.7,1.42,1.8,1.41c12.73-0.04,25.46-0.02,38.19-0.02c1.65,0,1.68-0.03,1.68-1.74
		c0-9.26,0-18.53,0-27.79c0-1.76-0.01-1.76-1.78-1.76C66.85,7.97,55.86,7.97,44.86,7.97z M103.66,7.97c-4.86,0-9.73,0.03-14.59-0.02
		c-1.21-0.01-1.63,0.35-1.63,1.58c0.04,9.39,0.04,18.78,0,28.17c-0.01,1.24,0.43,1.58,1.63,1.58c9.6-0.04,19.2-0.02,28.8-0.03
		c3.2,0,4.4-1.19,4.4-4.35c0.01-7.53,0.01-15.06,0-22.59c0-3.17-1.19-4.34-4.41-4.34C113.14,7.97,108.4,7.97,103.66,7.97z"/>
	<path d="M43.62,23.2c-8.12,0-16.24,0.01-24.36-0.01c-2.86-0.01-4.74-2.41-3.98-5c0.47-1.61,1.86-2.73,3.54-2.79
		c1.39-0.05,2.79-0.02,4.19-0.02c14.97,0,29.94,0,44.91,0c2.53,0,4.2,1.45,4.29,3.68c0.1,2.42-1.56,4.12-4.11,4.12
		c-6.51,0.02-13.03,0.01-19.54,0.01C46.91,23.2,45.27,23.2,43.62,23.2z"/>
	<path d="M116.89,18.24c0.05,1.09-0.42,2.06-1.23,2.87c-3.52,3.53-7.03,7.08-10.59,10.57c-1.86,1.83-4.07,1.76-5.96-0.08
		c-1.66-1.63-3.31-3.27-4.93-4.93c-1.72-1.76-1.81-4.19-0.24-5.78c1.58-1.6,3.99-1.53,5.79,0.17c2.46,2.32,2.46,2.32,4.89-0.12
		c1.79-1.79,3.58-3.6,5.39-5.37c1.13-1.1,2.45-1.63,4.05-1.17C115.8,14.89,116.89,16.34,116.89,18.24z"/>
</g>
</svg>
