<?xml version="1.0" encoding="utf-8"?>
<!-- Generator: Adobe Illustrator 23.0.1, SVG Export Plug-In . SVG Version: 6.00 Build 0)  -->
<svg version="1.1" id="Layer_1" xmlns="http://www.w3.org/2000/svg" xmlns:xlink="http://www.w3.org/1999/xlink" x="0px" y="0px"
	 viewBox="0 0 130 130" style="enable-background:new 0 0 130 130;" xml:space="preserve">
<g>
	<path d="M64.18,119.25c-3.16-0.04-7.11-1.44-10.46-4.34c-0.82-0.71-1.33-0.8-2.23-0.09c-6.87,5.5-14.57,9.83-21.97,14.58
		c-1.4,0.9-2.68,0.81-3.91-0.4C17.42,121,9.22,113,1,105.02c-1.23-1.19-1.29-2.38-0.39-3.79c1.68-2.63,3.26-5.32,4.9-7.97
		c3.43-5.54,4.71-11.81,6.51-17.91c0.29-0.97-0.41-1.4-0.96-1.9c-2.91-2.62-4.95-5.76-5.72-9.56c-1.28-6.33,0.46-11.84,5.13-16.42
		c7-6.86,14.03-13.69,21.05-20.53C38.35,20.3,45.17,13.65,52,7.01c8.14-7.92,18.88-7.95,27-0.06c5.41,5.26,10.82,10.52,16.21,15.8
		c0.75,0.73,1.41,1.22,2.62,0.87c1.22-0.36,1.65-1.06,1.9-2.17c0.67-2.97,1.44-5.92,2.17-8.87c0.33-1.36,0.9-2.49,2.61-2.47
		c1.71,0.02,2.23,1.17,2.56,2.53c0.73,3.01,1.5,6.02,2.19,9.04c0.23,1.02,0.7,1.59,1.77,1.88c3.54,0.97,7.05,2.05,10.58,3.06
		c1.33,0.38,2.39,0.99,2.38,2.53c-0.01,1.54-1.1,2.12-2.42,2.5c-3.53,1.01-7.05,2.04-10.57,3.08c-1.89,0.55-2.09,1.35-0.69,2.73
		c3.38,3.31,6.79,6.6,10.17,9.92c7.63,7.49,7.72,18.13,0.08,25.62c-13.95,13.69-27.98,27.31-42,40.93
		C74.96,117.4,70.62,119.27,64.18,119.25z M34.07,63.12c0.14,0.11,0.29,0.23,0.43,0.34c0.49-0.59,0.92-1.23,1.47-1.76
		c8.15-7.97,16.3-15.94,24.5-23.87c3.75-3.63,9.67-3.23,12.52,0.9c0.9,1.31,1.32,1.25,2.4,0.22c3.29-3.14,8.08-3.13,11.28-0.11
		c3.21,3.02,3.37,7.66,0.37,11.02c-0.66,0.74-1.38,1.42-2.11,2.1c-0.61,0.56-0.6,0.95,0.17,1.34c4.92,2.54,5.52,9.53,1.38,12.9
		c-0.72,0.58-0.8,0.94,0.13,1.53c4.73,3.01,5.34,8.44,1.34,12.39c-10.08,9.93-20.11,19.9-30.44,29.59
		c-1.04,0.97-0.91,1.44,0.16,2.21c5.2,3.72,12.29,3.44,16.88-1c14.41-13.94,28.77-27.93,43.07-41.97c4.28-4.2,4.94-10.73,1.5-15.61
		c-3-4.26-7.31-7.39-10.97-11.27c-0.73,1.29-0.79,2.51-1.09,3.64c-0.36,1.31-0.93,2.38-2.5,2.41c-1.67,0.04-2.31-1.05-2.64-2.44
		c-0.73-3.01-1.52-6.01-2.2-9.04c-0.26-1.15-0.81-1.74-2-2.06c-3.65-0.98-7.28-2.07-10.9-3.14c-1.18-0.35-1.88-1.12-1.84-2.41
		c0.03-1.21,0.74-1.89,1.84-2.25c1-0.33,2.01-0.66,3.04-0.91c0.95-0.23,1.12-0.54,0.38-1.25C84.9,19.49,79.75,14.21,74.28,9.24
		c-5.13-4.66-12.83-4.5-17.74,0.25C42.13,23.44,27.77,37.43,13.47,51.47c-4.5,4.42-4.82,11.24-1.05,16.3
		c0.32,0.43,0.59,1.11,1.17,1.05c0.66-0.07,0.58-0.84,0.72-1.33c1.79-6.11,3.54-12.23,5.31-18.35c1.34-4.61,5.79-7.17,10.47-6.04
		c4.61,1.11,7.36,5.54,6.29,10.18C35.63,56.57,34.85,59.84,34.07,63.12z M31.76,51.37c-0.06-0.35-0.09-0.62-0.16-0.88
		c-0.44-1.7-1.72-2.7-3.48-2.74c-2-0.05-3.21,0.85-3.82,2.96c-2.49,8.57-4.92,17.16-7.45,25.72c-1.8,6.1-3.03,12.39-6.35,17.97
		c-1.42,2.4-2.8,4.82-4.27,7.2c-0.47,0.77-0.52,1.27,0.19,1.96c6.93,6.7,13.83,13.43,20.71,20.17c0.68,0.67,1.21,0.73,2.01,0.21
		c2.17-1.43,4.38-2.81,6.6-4.16c7.88-4.8,15.23-10.22,21.77-16.7C66.19,94.48,75,86,83.75,77.46c0.51-0.5,1.06-1,1.41-1.6
		c1.17-1.95-0.18-4.22-2.49-4.34c-1.29-0.07-2.21,0.53-3.07,1.37c-5.19,5.09-10.4,10.15-15.61,15.22c-0.39,0.38-0.77,0.79-1.21,1.13
		c-1.11,0.87-2.28,0.92-3.32-0.06c-1.03-0.98-1.05-2.12-0.15-3.22c0.38-0.47,0.84-0.87,1.27-1.3c7.26-7.07,14.51-14.14,21.77-21.22
		c0.47-0.46,0.96-0.92,1.33-1.46c0.94-1.34,0.76-2.95-0.38-4.02c-1.05-0.98-2.94-1.13-4.17-0.26c-0.54,0.38-1,0.86-1.47,1.33
		c-6.87,6.68-13.73,13.37-20.6,20.05c-0.47,0.46-0.95,0.95-1.51,1.27c-1.07,0.62-2.17,0.58-3.05-0.35
		c-0.86-0.91-0.93-1.98-0.19-2.98c0.49-0.66,1.09-1.23,1.68-1.81c9.38-9.15,18.77-18.3,28.16-27.44c0.43-0.42,0.89-0.83,1.27-1.29
		c0.85-1.01,1.1-2.11,0.44-3.33c-0.68-1.27-1.77-1.71-3.19-1.63c-1.18,0.07-1.91,0.8-2.66,1.54c-9.66,9.42-19.32,18.83-28.99,28.25
		c-0.43,0.42-0.85,0.89-1.36,1.2c-1.11,0.66-2.27,0.67-3.19-0.32c-0.91-0.97-0.92-2.07-0.05-3.1c0.35-0.42,0.76-0.79,1.15-1.18
		c7.29-7.11,14.59-14.22,21.89-21.33c0.47-0.46,0.96-0.92,1.36-1.43c0.86-1.1,0.98-2.3,0.25-3.5c-0.71-1.16-1.83-1.49-3.16-1.39
		c-1.18,0.08-1.89,0.84-2.64,1.57C52.91,51.94,42.53,62.04,32.17,72.16c-1.08,1.06-2.18,2-3.78,1.14c-1.63-0.88-1.3-2.32-0.95-3.75
		c0.79-3.22,1.55-6.45,2.31-9.68C30.43,57.02,31.1,54.16,31.76,51.37z M104.46,23.48c-0.21,3.28-2.45,4.08-4.98,4.68
		c-0.9,0.21-1.92,0.27-2.75,1.03c2.97,1.46,7.4,0.63,7.54,5.45c0.27-0.13,0.34-0.15,0.36-0.18c0.08-0.2,0.2-0.4,0.22-0.61
		c0.25-2.1,1.58-3.08,3.59-3.49c1.27-0.26,2.49-0.71,4.03-1.16C109.4,27.51,104.81,28.5,104.46,23.48z"/>
	<path d="M102.01,117.06c-0.02-4.49,3.55-8.09,8.05-8.09c4.47-0.01,8.22,3.64,8.23,7.99c0.01,4.35-3.72,7.98-8.21,8.01
		C105.72,124.99,102.03,121.38,102.01,117.06z M110.08,120.04c1.78-0.01,3.27-1.39,3.27-3.05c0.01-1.71-1.42-3.06-3.23-3.06
		c-1.86,0-3.22,1.28-3.21,3.03C106.94,118.75,108.27,120.05,110.08,120.04z"/>
	<path d="M15.54,4.88c-0.03,0.59,0.02,1.41-0.13,2.2c-0.23,1.27-1.09,2.04-2.43,2.03c-1.25-0.01-2.1-0.72-2.34-1.93
		c-0.34-1.77-0.35-3.56,0-5.33c0.22-1.13,0.99-1.79,2.21-1.85c1.29-0.06,2.09,0.57,2.48,1.75C15.64,2.7,15.46,3.69,15.54,4.88z"/>
	<path d="M15.47,17.99c0,0.76,0.09,1.52-0.02,2.27c-0.19,1.35-1.05,2.19-2.45,2.2c-1.34,0.01-2.16-0.78-2.38-2.06
		c-0.29-1.66-0.29-3.34-0.01-5.01c0.22-1.28,1.02-2.02,2.4-2.03c1.4-0.01,2.16,0.8,2.4,2.04c0.16,0.84,0.11,1.72,0.16,2.58
		C15.53,17.99,15.5,17.99,15.47,17.99z"/>
	<path d="M6.06,13.55c-0.78,0-1.56,0.06-2.33-0.01c-1.43-0.13-2.27-0.99-2.28-2.34c-0.02-1.28,0.8-2.21,2.12-2.31
		c1.71-0.13,3.45-0.13,5.16,0c1.32,0.1,2.11,0.99,2.1,2.31c-0.01,1.39-0.85,2.2-2.26,2.34C7.73,13.61,6.89,13.55,6.06,13.55z"/>
	<path d="M19.9,13.55c-0.83,0-1.67,0.06-2.5-0.02c-1.43-0.14-2.25-1.02-2.25-2.36c0-1.28,0.82-2.19,2.15-2.29
		c1.65-0.13,3.33-0.13,4.99-0.01c1.38,0.1,2.26,0.98,2.24,2.37c-0.02,1.39-0.88,2.18-2.3,2.3C21.46,13.61,20.68,13.55,19.9,13.55z"
		/>
	<path d="M127.46,99.65c-1.38,0.02-2.59-1.09-2.63-2.42c-0.04-1.39,1.22-2.64,2.63-2.61c1.37,0.03,2.54,1.19,2.54,2.52
		C130,98.5,128.85,99.63,127.46,99.65z"/>
</g>
</svg>
