<?xml version="1.0" encoding="utf-8"?>
<!-- Generator: Adobe Illustrator 23.0.1, SVG Export Plug-In . SVG Version: 6.00 Build 0)  -->
<svg version="1.1" id="Layer_1" xmlns="http://www.w3.org/2000/svg" xmlns:xlink="http://www.w3.org/1999/xlink" x="0px" y="0px"
	 viewBox="0 0 130 130" style="enable-background:new 0 0 130 130;" xml:space="preserve">
<g>
	<path d="M90.57,0c2.73,0.68,4.87,2.25,6.84,4.22c9.51,9.52,19.09,18.98,28.64,28.46c5.27,5.23,5.27,11.65,0.01,16.88
		c-9.25,9.19-18.49,18.37-27.76,27.53c-0.84,0.83-1.41,1.75-1.81,2.85c-3.19,8.65-6.43,17.29-9.64,25.94
		c-2.85,7.66-8.28,12.53-16.17,14.75c-5.74,1.61-11.47,3.25-17.22,4.79c-1.29,0.35-2.32,0.93-3.22,1.89
		c-0.89,0.96-1.79,1.93-2.89,2.68c-0.68,0-1.36,0-2.05,0c-2.07-1.48-2.23-3.06-0.47-4.84c0.9-0.91,1.84-1.77,2.7-2.7
		c0.83-0.91,1.82-1.44,3.02-1.77c6.53-1.79,13.05-3.59,19.54-5.51c5.49-1.62,9.29-5.17,11.43-10.45c0.7-1.73,1.32-3.48,1.96-5.23
		c1.45-3.91,2.9-7.83,4.36-11.75c-0.1-0.08-0.21-0.17-0.31-0.25c-0.24,0.34-0.44,0.73-0.74,1.02c-3.46,3.45-6.9,6.91-10.41,10.31
		c-3.37,3.26-8.32,4-12.56,1.99c-1.69-0.8-3-2.07-4.25-3.4c-0.53-0.56-0.89-0.55-1.46-0.02c-1.72,1.62-3.11,1.76-4.33,0.52
		c-1.26-1.28-1.05-2.69,0.66-4.39c0.75-0.75,1.51-1.5,2.26-2.24c4.46-4.43,8.91-8.86,13.38-13.28c1.4-1.38,2.1-3,1.62-4.94
		c-0.92-3.76-5.44-5.02-8.27-2.29c-3.45,3.33-6.86,6.71-10.21,10.14c-1.16,1.19-2.43,1.8-4.08,1.65c-0.46-0.04-0.94-0.01-1.41,0
		c-4.41,0.11-8.21,1.65-11.42,4.67c-3.96,3.74-5.32,8.45-5.21,13.69c0.03,1.52-0.47,2.64-1.55,3.7
		c-8.07,7.96-16.11,15.96-24.15,23.95c-0.55,0.54-1.12,1.03-1.8,1.41c-0.6,0-1.19,0-1.79,0c-2.22-1.53-2.39-3.1-0.49-4.99
		c7.77-7.72,15.54-15.45,23.34-23.14c0.78-0.77,1.11-1.55,1.14-2.66c0.26-9.34,4.71-16.02,13.16-20.08c1.46-0.7,1.47-0.67,0.3-1.84
		c-2.86-2.84-5.74-5.67-8.59-8.53c-4.79-4.81-4.79-11.37,0-16.15c5.38-5.37,10.79-10.71,16.18-16.07c0.8-0.8,1.7-1.28,2.87-0.96
		c1.04,0.28,1.69,0.98,1.93,2c0.27,1.16-0.29,2.04-1.08,2.82c-3.53,3.5-7.05,7-10.58,10.5c-1.84,1.82-3.68,3.64-5.51,5.48
		c-2.6,2.61-2.64,5.97-0.06,8.56c3.81,3.81,7.65,7.61,11.48,11.4c1.19,1.18,2.99,1.2,4.19,0.02c3.11-3.07,6.18-6.19,9.33-9.23
		c3.9-3.78,9.34-4.25,13.53-1.23c5.09,3.66,5.79,10.85,1.41,15.37c-3.49,3.6-7.07,7.11-10.67,10.59c-0.89,0.86-0.85,1.34,0.01,2.2
		c1.75,1.75,3.62,2.94,6.23,2.37c1.17-0.25,2.13-0.83,2.96-1.65c16.64-16.51,33.28-33.02,49.9-49.55c2.39-2.37,2.4-5.81,0.01-8.19
		C112.73,27,102.64,16.97,92.52,6.97c-2.49-2.46-5.85-2.38-8.42,0.16C78.72,12.44,73.37,17.77,68,23.09
		c-0.39,0.39-0.79,0.78-1.25,1.08c-1.2,0.77-2.54,0.56-3.45-0.48c-0.87-1-0.91-2.3-0.06-3.37c0.26-0.33,0.58-0.62,0.88-0.92
		c5.09-5.06,10.22-10.08,15.26-15.19c1.96-1.99,4.11-3.53,6.84-4.22C87.67,0,89.12,0,90.57,0z"/>
	<path d="M85.25,69.66c-1.48-0.02-2.31-0.55-2.8-1.54c-0.48-0.96-0.33-1.89,0.34-2.73c0.21-0.26,0.46-0.5,0.7-0.74
		c8.32-8.29,16.65-16.59,24.98-24.87c0.48-0.48,0.98-0.95,1.54-1.32c1.08-0.71,2.36-0.54,3.27,0.35c0.92,0.9,1.09,2.14,0.39,3.24
		c-0.29,0.46-0.68,0.86-1.07,1.25c-8.4,8.34-16.8,16.68-25.2,25.02C86.7,69.01,86.01,69.69,85.25,69.66z"/>
	<path d="M98.06,27.5c-0.03,4.95-4.32,9.14-9.3,9.08c-4.99-0.06-9.26-4.37-9.17-9.24c0.1-5.04,4.26-9.13,9.27-9.11
		C93.96,18.24,98.09,22.41,98.06,27.5z M88.89,23.65c-2.16-0.02-3.84,1.59-3.86,3.71c-0.02,2.03,1.74,3.79,3.82,3.8
		c2.08,0.01,3.71-1.6,3.74-3.68C92.62,25.29,91.05,23.67,88.89,23.65z"/>
	<path d="M48.32,61.08c-1.14-0.02-1.96-0.57-2.39-1.6c-0.45-1.07-0.27-2.09,0.55-2.93c1.58-1.61,3.18-3.18,4.78-4.77
		c1.17-1.17,2.33-2.35,3.53-3.49c1.26-1.2,2.94-1.26,4-0.2c1.13,1.13,1.08,2.66-0.2,3.95c-2.72,2.74-5.48,5.45-8.22,8.17
		C49.8,60.77,49.14,61.1,48.32,61.08z"/>
	<path d="M57.14,32.74c-1.41-0.02-2.69-1.33-2.66-2.71c0.03-1.42,1.31-2.66,2.72-2.65c1.42,0.02,2.69,1.3,2.67,2.7
		C59.86,31.45,58.51,32.76,57.14,32.74z"/>
</g>
</svg>
