<?xml version="1.0" encoding="utf-8"?>
<!-- Generator: Adobe Illustrator 23.0.1, SVG Export Plug-In . SVG Version: 6.00 Build 0)  -->
<svg version="1.1" id="Layer_1" xmlns="http://www.w3.org/2000/svg" xmlns:xlink="http://www.w3.org/1999/xlink" x="0px" y="0px"
	 viewBox="0 0 130 130" style="enable-background:new 0 0 130 130;" xml:space="preserve">
<style type="text/css">
	.st0{clip-path:url(#SVGID_2_);}
</style>
<g>
	<defs>
		<rect id="SVGID_1_" width="130" height="130"/>
	</defs>
	<clipPath id="SVGID_2_">
		<use xlink:href="#SVGID_1_"  style="overflow:visible;"/>
	</clipPath>
	<g class="st0">
		<path d="M65,10.35c18.1,0,36.2-0.01,54.3,0c5.33,0,9.48,3.39,10.54,8.56c0.14,0.68,0.16,1.39,0.16,2.08
			c0.01,22.29,0.01,44.57,0,66.86c0,6.04-4.56,10.59-10.59,10.61c-6.41,0.02-12.82,0.04-19.23-0.02c-1.29-0.01-1.65,0.41-1.6,1.64
			c0.09,1.96,0.04,3.92,0.01,5.89c-0.01,0.69,0.21,1.12,0.83,1.46c2.37,1.3,3.45,3.35,3.37,6.04c-0.03,1.13,0.01,2.27-0.01,3.4
			c-0.03,1.78-0.76,2.5-2.58,2.53c-0.22,0-0.44,0-0.65,0c-23.03,0-46.05,0-69.08,0c-2.7,0-3.23-0.53-3.24-3.19
			c0-1.13-0.02-2.27,0.01-3.4c0.07-3.43,2.75-6.12,6.2-6.15c5.32-0.04,10.64-0.04,15.96,0.01c1.05,0.01,1.59-0.3,1.88-1.32
			c0.51-1.76,1.13-3.48,1.71-5.22c0.55-1.67,0.55-1.67-1.15-1.67c-8.33,0-16.66,0-24.99,0c-5.41,0-10.82,0.01-16.22-0.01
			c-6.04-0.02-10.6-4.57-10.6-10.61C0,65.57,0,43.29,0.01,21c0-6.11,4.56-10.64,10.69-10.65C28.8,10.35,46.9,10.35,65,10.35z
			 M64.63,74.06c0.39-0.5,0.27-0.86,0.27-1.19c0.01-7.72-0.02-15.44,0.03-23.16c0.01-1.28-0.46-1.51-1.6-1.5
			c-7.11,0.04-14.22,0.03-21.33,0.01c-3.68-0.01-6.37-2.69-6.41-6.34c-0.02-2.79-0.02-5.58,0-8.37c0.03-3.69,2.68-6.39,6.35-6.39
			c15.35-0.02,30.71-0.02,46.06,0c3.67,0,6.35,2.7,6.39,6.36c0.02,2.79,0.02,5.58,0,8.37c-0.03,3.66-2.71,6.34-6.38,6.37
			c-2.49,0.02-4.97-0.02-7.46,0.01c-3.37,0.04-2.83-0.53-2.92,2.89c-0.02,0.93,0.14,1.31,1.22,1.16c2.21-0.3,4.15,0.41,5.61,2.14
			c0.43,0.5,0.78,0.48,1.35,0.3c3.36-1.09,6.21,0.05,7.93,3.2c0.35,0.64,0.68,0.81,1.42,0.7c4.36-0.66,7.59,2.18,7.6,6.62
			c0.01,4.23,0.05,8.46-0.03,12.69c-0.02,1.23,0.35,1.56,1.55,1.55c6.59-0.05,13.17-0.06,19.76,0c1.29,0.01,1.6-0.4,1.6-1.64
			c-0.04-18.67-0.02-37.34-0.03-56.01c0-4.61-2.52-7.1-7.15-7.1c-35.64,0-71.27,0-106.91,0c-4.72,0-7.19,2.48-7.19,7.2
			c0,18.62,0.01,37.25-0.03,55.87c0,1.34,0.38,1.68,1.7,1.68c14.57-0.04,29.14-0.03,43.7-0.04c0.41,0,0.86,0.16,1.3-0.2
			c-0.41-0.43-0.8-0.83-1.17-1.24c-2.48-2.76-2.34-6.74,0.34-9.3c2.6-2.5,6.54-2.5,9.21,0.06C61.19,70.46,62.88,72.27,64.63,74.06z
			 M69.28,62.89c0,5.45-0.01,10.9,0.01,16.35c0,1.06-0.34,1.91-1.35,2.31c-1,0.4-1.86,0.11-2.61-0.65
			c-1.41-1.43-2.83-2.84-4.25-4.26c-1.51-1.51-3.01-3.03-4.54-4.52c-0.69-0.67-1.5-1.01-2.5-0.64c-0.83,0.31-1.26,0.94-1.39,1.75
			c-0.15,1.01,0.45,1.72,1.12,2.38C58.14,80,62.5,84.4,66.9,88.75c1.31,1.3,2.56,2.62,3.22,4.38c0.26,0.69,0.71,0.99,1.49,0.99
			c6.45-0.03,12.91-0.02,19.36,0c0.83,0,1.25-0.26,1.15-1.13c-0.13-1.19,0.31-2.21,0.83-3.23c1.43-2.79,2.78-5.63,4.23-8.41
			c0.85-1.63,1.25-3.32,1.23-5.15c-0.04-3.44-0.01-6.89-0.01-10.33c0-0.57-0.01-1.13-0.23-1.67c-0.32-0.76-0.92-1.2-1.71-1.22
			c-0.85-0.03-1.49,0.42-1.83,1.23c-0.21,0.5-0.23,1.01-0.23,1.54c0,2.22,0.04,4.45-0.01,6.67c-0.07,3.48,0.74,2.99-3.3,3.04
			c-0.8,0.01-1.08-0.34-1.06-1.1c0.03-1.13,0-2.27,0-3.4c0-3.23,0.02-6.45-0.01-9.68c-0.01-1.51-0.8-2.47-1.95-2.51
			c-1.19-0.04-1.99,0.97-2.04,2.55c-0.01,0.35,0,0.7,0,1.05c0,3.14-0.06,6.28,0.03,9.42c0.03,1.29-0.42,1.76-1.65,1.59
			c-0.17-0.02-0.35,0-0.52,0c-2.22,0-2.22,0-2.22-2.16c0-4.01,0.01-8.02-0.01-12.03c-0.01-1.5-0.82-2.47-1.96-2.49
			c-1.15-0.02-1.96,0.94-2.02,2.43c-0.02,0.35-0.01,0.7-0.01,1.05c0,4.23,0.02,8.46-0.01,12.69c-0.01,2.95,0.38,2.53-2.68,2.64
			c-1.3,0.05-1.72-0.33-1.72-1.68c0.06-8.72,0.03-17.44,0.03-26.16c0-0.44,0.02-0.87-0.02-1.31c-0.1-1.32-0.9-2.21-1.97-2.22
			c-1.07-0.01-1.89,0.87-2,2.18c-0.03,0.39-0.02,0.78-0.02,1.18C69.28,52.6,69.28,57.74,69.28,62.89z M65.01,31.47
			c-7.41,0-14.82-0.01-22.23,0c-2.03,0-2.79,0.75-2.8,2.75c-0.02,2.31-0.02,4.62,0,6.93c0.02,1.92,0.79,2.68,2.74,2.69
			c7.15,0.01,14.3,0,21.45,0.02c0.74,0,1.17-0.24,1.56-0.9c2.62-4.45,8.42-4.46,11.11-0.03c0.39,0.63,0.79,0.94,1.54,0.93
			c3.01-0.03,6.02,0,9.02-0.02c1.84-0.02,2.61-0.8,2.63-2.66c0.03-2.18,0.01-4.36,0.01-6.54c-0.01-2.52-0.65-3.17-3.18-3.17
			C79.57,31.47,72.29,31.47,65.01,31.47z M37.53,94.1c8.85,0,17.71,0,26.56-0.01c0.41,0,0.99,0.23,1.17-0.27
			c0.16-0.45-0.34-0.76-0.64-1.06c-2.61-2.63-5.26-5.22-7.84-7.89c-0.76-0.79-1.55-1.09-2.64-1.08
			c-16.01,0.03-32.01,0.02-48.02,0.02c-0.35,0-0.7,0-1.05,0.02c-0.33,0.01-0.65,0.15-0.65,0.51c-0.05,2.73-0.43,5.55,1.71,7.8
			c1.42,1.5,3.24,1.96,5.23,1.96C20.08,94.1,28.8,94.1,37.53,94.1z M64.93,115.04c10.51,0,21.02,0,31.53,0c0.35,0,0.7-0.02,1.05,0
			c0.69,0.03,0.88-0.33,0.91-0.96c0.12-2.1-0.75-3.03-2.93-3.03c-20.32-0.01-40.64,0-60.96,0c-0.57,0-1.13,0.01-1.67,0.25
			c-0.97,0.45-1.5,1.73-1.25,3.04c0.22,1.17,1.17,0.69,1.8,0.69C43.91,115.05,54.42,115.04,64.93,115.04z M113.29,83.82
			c-3.14,0-6.29,0.17-9.41-0.06c-2.28-0.17-3.48,0.61-4.29,2.7c-0.78,2.02-1.94,3.9-2.86,5.87c-0.59,1.26-0.28,1.76,0.99,1.76
			c7.1,0.01,14.21,0.04,21.31-0.01c3.96-0.03,6.49-2.63,6.58-6.6c0.02-0.78-0.05-1.57,0.02-2.35c0.1-1.07-0.36-1.34-1.36-1.33
			C120.62,83.85,116.95,83.82,113.29,83.82z M81.84,98.47c-3.75,0-7.5,0.02-11.25-0.02c-0.93-0.01-1.35,0.23-1.32,1.25
			c0.06,1.92,0.05,3.84,0,5.76c-0.02,0.91,0.3,1.22,1.21,1.22c7.5-0.03,15-0.03,22.51,0c1,0,1.28-0.38,1.25-1.31
			c-0.05-1.83-0.07-3.67,0-5.49c0.04-1.09-0.33-1.44-1.41-1.42C89.16,98.51,85.5,98.47,81.84,98.47z M60.22,106.66
			c1.18,0,2.35-0.03,3.53,0.01c0.82,0.03,1.19-0.24,1.17-1.12c-0.04-2-0.03-4,0-6.01c0.01-0.78-0.27-1.1-1.07-1.09
			c-1.52,0.03-3.05,0.03-4.57,0c-0.71-0.02-1.12,0.24-1.34,0.94c-0.66,2.07-1.34,4.14-2.06,6.19c-0.31,0.87,0.01,1.09,0.82,1.07
			C57.87,106.64,59.05,106.66,60.22,106.66z"/>
	</g>
</g>
</svg>
